<?xml version="1.0" encoding="UTF-8" standalone="no"?>
<!-- Created with Inkscape (http://www.inkscape.org/) -->

<svg
   xmlns:dc="http://purl.org/dc/elements/1.1/"
   xmlns:cc="http://creativecommons.org/ns#"
   xmlns:rdf="http://www.w3.org/1999/02/22-rdf-syntax-ns#"
   xmlns:svg="http://www.w3.org/2000/svg"
   xmlns="http://www.w3.org/2000/svg"
   xmlns:sodipodi="http://sodipodi.sourceforge.net/DTD/sodipodi-0.dtd"
   xmlns:inkscape="http://www.inkscape.org/namespaces/inkscape"
   width="64px"
   height="64px"
   id="svg3424"
   sodipodi:version="0.32"
   inkscape:version="0.48.1 r9760"
   sodipodi:docname="logo.svg"
   inkscape:output_extension="org.inkscape.output.svg.inkscape"
   inkscape:export-filename="/mnt/ex/pseint/bin/imgs/icon256.png"
   inkscape:export-xdpi="360"
   inkscape:export-ydpi="360"
   version="1.1">
  <defs
     id="defs3426">
    <linearGradient
       id="linearGradient4280">
      <stop
         style="stop-color:#eeffaa;stop-opacity:1;"
         offset="0"
         id="stop4282" />
      <stop
         style="stop-color:#eeffaa;stop-opacity:1;"
         offset="1"
         id="stop4284" />
    </linearGradient>
    <inkscape:perspective
       sodipodi:type="inkscape:persp3d"
       inkscape:vp_x="0 : 32 : 1"
       inkscape:vp_y="0 : 1000 : 0"
       inkscape:vp_z="64 : 32 : 1"
       inkscape:persp3d-origin="32 : 21.333333 : 1"
       id="perspective3432" />
    <filter
       inkscape:collect="always"
       id="filter4364">
      <feGaussianBlur
         inkscape:collect="always"
         stdDeviation="0.89262767"
         id="feGaussianBlur4366" />
    </filter>
    <filter
       inkscape:collect="always"
       id="filter4425"
       x="-0.051994424"
       width="1.1039888"
       y="-0.11426659"
       height="1.2285332">
      <feGaussianBlur
         inkscape:collect="always"
         stdDeviation="0.38967718"
         id="feGaussianBlur4427" />
    </filter>
    <filter
       inkscape:collect="always"
       id="filter4429"
       x="-0.072339268"
       width="1.1446785"
       y="-0.11888709"
       height="1.2377742">
      <feGaussianBlur
         inkscape:collect="always"
         stdDeviation="0.38967718"
         id="feGaussianBlur4431" />
    </filter>
    <filter
       inkscape:collect="always"
       id="filter4463"
       x="-0.36747922"
       width="1.7349584"
       y="-0.14897803"
       height="1.2979561">
      <feGaussianBlur
         inkscape:collect="always"
         stdDeviation="0.31319243"
         id="feGaussianBlur4465" />
    </filter>
    <filter
       inkscape:collect="always"
       id="filter4467"
       x="-0.19381941"
       width="1.3876388"
       y="-0.28135066"
       height="1.5627013">
      <feGaussianBlur
         inkscape:collect="always"
         stdDeviation="0.3303739"
         id="feGaussianBlur4469" />
    </filter>
    <filter
       inkscape:collect="always"
       id="filter4493"
       x="-0.20080624"
       width="1.4016125"
       y="-0.49532201"
       height="1.990644">
      <feGaussianBlur
         inkscape:collect="always"
         stdDeviation="0.39800633"
         id="feGaussianBlur4495" />
    </filter>
    <filter
       inkscape:collect="always"
       id="filter4513">
      <feGaussianBlur
         inkscape:collect="always"
         stdDeviation="0.28832953"
         id="feGaussianBlur4515" />
    </filter>
    <filter
       inkscape:collect="always"
       id="filter4567">
      <feGaussianBlur
         inkscape:collect="always"
         stdDeviation="0.2226724"
         id="feGaussianBlur4569" />
    </filter>
    <filter
       inkscape:collect="always"
       id="filter4571">
      <feGaussianBlur
         inkscape:collect="always"
         stdDeviation="0.2226724"
         id="feGaussianBlur4573" />
    </filter>
  </defs>
  <sodipodi:namedview
     id="base"
     pagecolor="#ffffff"
     bordercolor="#666666"
     borderopacity="1.0"
     inkscape:pageopacity="0.0"
     inkscape:pageshadow="2"
     inkscape:zoom="3.8890872"
     inkscape:cx="47.528943"
     inkscape:cy="19.906472"
     inkscape:current-layer="g3452"
     showgrid="true"
     inkscape:document-units="px"
     inkscape:grid-bbox="true"
     inkscape:window-width="953"
     inkscape:window-height="687"
     inkscape:window-x="262"
     inkscape:window-y="20"
     inkscape:window-maximized="0" />
  <metadata
     id="metadata3429">
    <rdf:RDF>
      <cc:Work
         rdf:about="">
        <dc:format>image/svg+xml</dc:format>
        <dc:type
           rdf:resource="http://purl.org/dc/dcmitype/StillImage" />
        <dc:title></dc:title>
      </cc:Work>
    </rdf:RDF>
  </metadata>
  <g
     id="layer1"
     inkscape:label="Layer 1"
     inkscape:groupmode="layer">
    <g
       transform="matrix(1.2452441,-0.02492422,-0.0484366,1.197214,-15.317837,8.2898783)"
       id="g3472"
       style="fill:#999999;stroke:#999999;filter:url(#filter4364)"
       inkscape:export-filename="/mnt/ex/pseint/bin/imgs/icon64.png"
       inkscape:export-xdpi="93.639999"
       inkscape:export-ydpi="93.639999">
      <path
         sodipodi:nodetypes="cc"
         id="path3474"
         d="m 40.407358,18.824707 -0.211044,5.748416"
         style="fill:#999999;fill-rule:evenodd;stroke:#999999;stroke-width:1.75512552;stroke-linecap:butt;stroke-linejoin:miter;stroke-miterlimit:4;stroke-opacity:1;stroke-dasharray:none"
         inkscape:connector-curvature="0" />
      <path
         sodipodi:nodetypes="cc"
         id="path3476"
         d="m 40.530557,15.469041 -0.211045,5.748415"
         style="fill:#999999;fill-rule:evenodd;stroke:#999999;stroke-width:1.75512552;stroke-linecap:butt;stroke-linejoin:miter;stroke-miterlimit:4;stroke-opacity:1;stroke-dasharray:none"
         inkscape:connector-curvature="0" />
      <rect
         style="fill:#999999;fill-opacity:1;stroke:#999999;stroke-width:1.32557571;stroke-linecap:round;stroke-linejoin:miter;stroke-miterlimit:4;stroke-opacity:1;stroke-dasharray:none;stroke-dashoffset:0"
         id="rect3478"
         width="35.512405"
         height="13.675757"
         x="27.564785"
         y="6.947217"
         ry="0"
         transform="matrix(1,0,-0.3991855,0.9168702,0,0)" />
      <text
         xml:space="preserve"
         style="font-size:10.40263557px;font-style:normal;font-weight:normal;fill:#999999;fill-opacity:1;stroke:#999999;stroke-width:1px;stroke-linecap:butt;stroke-linejoin:miter;stroke-opacity:1;font-family:Bitstream Vera Sans"
         x="29.943819"
         y="16.590906"
         id="text3480"><tspan
           sodipodi:role="line"
           id="tspan3482"
           x="29.943819"
           y="16.590906">PSe</tspan></text>
      <path
         style="fill:#999999;fill-rule:evenodd;stroke:#999999;stroke-width:1.32751667;stroke-linecap:butt;stroke-linejoin:miter;stroke-miterlimit:4;stroke-opacity:1;stroke-dasharray:none;marker-start:none"
         d="M 50.442795,7.4327428 56.31869,1.9351567"
         id="path3484"
         inkscape:connector-curvature="0" />
      <path
         style="fill:#999999;fill-rule:evenodd;stroke:#999999;stroke-width:0;stroke-linecap:butt;stroke-linejoin:miter;stroke-miterlimit:4;stroke-opacity:1;stroke-dasharray:none"
         d="m 51.037213,2.7504205 1.251419,3.0721685 2.709203,1.0768106 -5.993706,1.8635067 2.033084,-6.0124858 z"
         id="path3486"
         sodipodi:nodetypes="ccccc"
         inkscape:connector-curvature="0" />
      <path
         style="fill:#999999;fill-rule:evenodd;stroke:#999999;stroke-width:0;stroke-linecap:butt;stroke-linejoin:miter;stroke-miterlimit:4;stroke-opacity:1;stroke-dasharray:none"
         d="m 37.830238,2.4135224 2.254023,0.7481323 1.918585,-0.7147121 -1.989094,3.3592718 -2.183514,-3.392692 z"
         id="path3488"
         sodipodi:nodetypes="ccccc"
         inkscape:export-filename="/mnt/ex/PSeInt/pseint/wxPSeInt/imgs/asignar.png"
         inkscape:export-xdpi="35.146439"
         inkscape:export-ydpi="35.146439"
         inkscape:connector-curvature="0" />
      <path
         style="fill:#999999;fill-rule:evenodd;stroke:#999999;stroke-width:1.75512552;stroke-linecap:butt;stroke-linejoin:miter;stroke-miterlimit:4;stroke-opacity:1;stroke-dasharray:none"
         d="M 41.138848,-1.0995593 40.927803,4.6488558"
         id="path3490"
         sodipodi:nodetypes="cc"
         inkscape:connector-curvature="0" />
      <path
         inkscape:export-ydpi="35.146439"
         inkscape:export-xdpi="35.146439"
         inkscape:export-filename="/mnt/ex/PSeInt/pseint/wxPSeInt/imgs/asignar.png"
         sodipodi:nodetypes="ccccc"
         id="path3492"
         d="m 35.533677,41.976505 4.318323,0.785613 3.724872,-0.671194 -3.957064,3.291653 -4.086131,-3.406072 z"
         style="fill:#999999;fill-rule:evenodd;stroke:#999999;stroke-width:0;stroke-linecap:butt;stroke-linejoin:miter;stroke-miterlimit:4;stroke-opacity:1;stroke-dasharray:none"
         inkscape:connector-curvature="0" />
      <path
         sodipodi:nodetypes="cc"
         id="path3494"
         d="M 39.691269,38.329515 39.480224,44.07793"
         style="fill:#999999;fill-rule:evenodd;stroke:#999999;stroke-width:1.75512552;stroke-linecap:butt;stroke-linejoin:miter;stroke-miterlimit:4;stroke-opacity:1;stroke-dasharray:none"
         inkscape:connector-curvature="0" />
      <path
         style="fill:#999999;fill-rule:evenodd;stroke:#999999;stroke-width:1.75512552;stroke-linecap:butt;stroke-linejoin:miter;stroke-miterlimit:4;stroke-opacity:1;stroke-dasharray:none"
         d="m 39.706669,37.910057 -0.211045,5.748414"
         id="path3496"
         sodipodi:nodetypes="cc"
         inkscape:connector-curvature="0" />
      <rect
         style="fill:#999999;fill-opacity:1;stroke:#999999;stroke-width:1.32557571;stroke-linecap:round;stroke-linejoin:miter;stroke-miterlimit:4;stroke-opacity:1;stroke-dasharray:none;stroke-dashoffset:0"
         id="rect3498"
         width="35.512405"
         height="13.675757"
         x="36.322636"
         y="28.886496"
         ry="0"
         transform="matrix(1,0,-0.3991855,0.9168702,0,0)"
         inkscape:export-filename="/mnt/ex/PSeInt/pseint/wxPSeInt/imgs/escribir.png"
         inkscape:export-xdpi="35.146439"
         inkscape:export-ydpi="35.146439" />
      <text
         xml:space="preserve"
         style="font-size:10.40263557px;font-style:normal;font-weight:normal;fill:#999999;fill-opacity:1;stroke:#999999;stroke-width:1px;stroke-linecap:butt;stroke-linejoin:miter;stroke-opacity:1;font-family:Bitstream Vera Sans"
         x="32.557194"
         y="36.70639"
         id="text3500"
         inkscape:export-filename="/mnt/ex/PSeInt/pseint/wxPSeInt/imgs/escribir.png"
         inkscape:export-xdpi="35.146439"
         inkscape:export-ydpi="35.146439"><tspan
           sodipodi:role="line"
           id="tspan3502"
           x="32.557194"
           y="36.70639">Int</tspan></text>
      <path
         style="fill:#999999;fill-rule:evenodd;stroke:#999999;stroke-width:1.32751667;stroke-linecap:butt;stroke-linejoin:miter;stroke-miterlimit:4;stroke-opacity:1;stroke-dasharray:none;marker-start:none"
         d="m 60.027172,23.463047 -5.875895,5.497586"
         id="path3504"
         inkscape:export-filename="/mnt/ex/PSeInt/pseint/wxPSeInt/imgs/escribir.png"
         inkscape:export-xdpi="35.146439"
         inkscape:export-ydpi="35.146439"
         inkscape:connector-curvature="0" />
      <path
         style="fill:#999999;fill-rule:evenodd;stroke:#999999;stroke-width:0;stroke-linecap:butt;stroke-linejoin:miter;stroke-miterlimit:4;stroke-opacity:1;stroke-dasharray:none"
         d="m 59.432753,28.14537 -1.251423,-3.072169 -2.709199,-1.07681 5.993706,-1.863508 -2.033084,6.012487 z"
         id="path3506"
         sodipodi:nodetypes="ccccc"
         inkscape:export-filename="/mnt/ex/PSeInt/pseint/wxPSeInt/imgs/escribir.png"
         inkscape:export-xdpi="35.146439"
         inkscape:export-ydpi="35.146439"
         inkscape:connector-curvature="0" />
      <path
         inkscape:export-ydpi="35.146439"
         inkscape:export-xdpi="35.146439"
         inkscape:export-filename="/mnt/ex/PSeInt/pseint/wxPSeInt/imgs/asignar.png"
         sodipodi:nodetypes="ccccc"
         id="path3508"
         d="m 36.249767,22.471698 4.318322,0.785612 3.724872,-0.671194 -3.957064,3.291653 -4.08613,-3.406071 z"
         style="fill:#999999;fill-rule:evenodd;stroke:#999999;stroke-width:0;stroke-linecap:butt;stroke-linejoin:miter;stroke-miterlimit:4;stroke-opacity:1;stroke-dasharray:none"
         inkscape:connector-curvature="0" />
    </g>
    <g
       id="g3452"
       transform="matrix(1.2934879,-6.8998557e-2,7.9480352e-2,1.2609866,-23.559066,7.0523812)">
      <path
         style="fill:#ffffff;fill-rule:evenodd;stroke:#800000;stroke-width:1.55650938;stroke-linecap:butt;stroke-linejoin:miter;stroke-miterlimit:4;stroke-opacity:1;stroke-dasharray:none"
         d="m 38.931951,18.727099 0.183863,5.775978"
         id="path3376"
         sodipodi:nodetypes="cc"
         inkscape:export-filename="/mnt/ex/pseint/bin/imgs/icon64.png"
         inkscape:export-xdpi="93.639999"
         inkscape:export-ydpi="93.639999"
         inkscape:connector-curvature="0" />
      <path
         style="fill:#ffffff;fill-rule:evenodd;stroke:#800000;stroke-width:1.55650938;stroke-linecap:butt;stroke-linejoin:miter;stroke-miterlimit:4;stroke-opacity:1;stroke-dasharray:none"
         d="m 38.824621,15.355343 0.183863,5.775978"
         id="path3340"
         sodipodi:nodetypes="cc"
         inkscape:export-filename="/mnt/ex/pseint/bin/imgs/icon64.png"
         inkscape:export-xdpi="93.639999"
         inkscape:export-ydpi="93.639999"
         inkscape:connector-curvature="0" />
      <rect
         transform="matrix(0.99999727,-0.00233647,-0.38700796,0.92207637,0,0)"
         ry="0"
         y="6.9548755"
         x="27.286602"
         height="13.594116"
         width="34.018612"
         id="rect3344"
         style="fill:#ffffc6;fill-opacity:1;stroke:#000000;stroke-width:1.2935183;stroke-linecap:round;stroke-linejoin:miter;stroke-miterlimit:4;stroke-opacity:1;stroke-dasharray:none;stroke-dashoffset:0"
         inkscape:export-filename="/mnt/ex/pseint/bin/imgs/icon64.png"
         inkscape:export-xdpi="93.639999"
         inkscape:export-ydpi="93.639999" />
      <path
         inkscape:connector-curvature="0"
         inkscape:export-ydpi="93.639999"
         inkscape:export-xdpi="93.639999"
         inkscape:export-filename="/mnt/ex/pseint/bin/imgs/icon64.png"
         id="path4405"
         d="m 32.113255,10.145601 0,2.84955 1.290171,0 c 0.477461,4e-6 0.846564,-0.123595 1.107311,-0.370797 0.260739,-0.247194 0.39111,-0.599366 0.391115,-1.056518 -5e-6,-0.453755 -0.130376,-0.804234 -0.391115,-1.051438 -0.260747,-0.247192 -0.62985,-0.370791 -1.107311,-0.370797 l -1.290171,0 m -1.026041,-0.843183 2.316212,0 c 0.84995,7.6e-6 1.491649,0.1930247 1.925097,0.5790527 0.436824,0.3826563 0.655238,0.9447773 0.655244,1.6863653 -6e-6,0.748371 -0.21842,1.313878 -0.655244,1.696523 -0.433448,0.382653 -1.075147,0.573977 -1.925097,0.573974 l -1.290171,0 0,3.047647 -1.026041,0 0,-7.583562 m 10.824226,0.2488917 0,1.0006443 c -0.389426,-0.186239 -0.756837,-0.325076 -1.102232,-0.416512 -0.345404,-0.09142 -0.678952,-0.1371373 -1.000644,-0.1371443 -0.558738,7e-6 -0.990488,0.1083673 -1.29525,0.3250823 -0.30138,0.216728 -0.45207,0.524879 -0.452068,0.924453 -2e-6,0.335246 0.09989,0.589217 0.299686,0.761912 0.203174,0.169318 0.585822,0.306462 1.147947,0.411432 l 0.619688,0.126985 c 0.765293,0.145614 1.329108,0.402971 1.691444,0.772071 0.365712,0.365721 0.54857,0.85673 0.548577,1.473029 -7e-6,0.734823 -0.247204,1.291865 -0.741595,1.671127 -0.491014,0.379263 -1.21229,0.568894 -2.163829,0.568894 -0.358948,0 -0.741597,-0.04064 -1.147947,-0.121906 -0.402968,-0.08127 -0.821173,-0.201483 -1.254615,-0.360638 l 0,-1.056518 c 0.416511,0.233654 0.824556,0.40974 1.224138,0.528259 0.399578,0.11852 0.792386,0.17778 1.178424,0.17778 0.585822,0 1.037889,-0.115133 1.356203,-0.3454 0.318305,-0.230266 0.47746,-0.558734 0.477465,-0.985406 -5e-6,-0.372488 -0.115139,-0.663708 -0.3454,-0.873659 -0.226885,-0.209946 -0.601068,-0.367408 -1.12255,-0.472386 l -0.624768,-0.121905 c -0.7653,-0.152379 -1.318956,-0.391111 -1.660968,-0.716197 -0.342014,-0.325078 -0.513021,-0.777146 -0.51302,-1.356203 -1e-6,-0.670477 0.235345,-1.198735 0.706038,-1.5847773 0.474076,-0.3860277 1.125934,-0.5790451 1.955573,-0.5790528 0.355556,7.7e-6 0.717887,0.032177 1.086995,0.096509 0.369099,0.064347 0.746668,0.1608555 1.132708,0.289527 m 6.882603,4.2565471 0,0.457147 -4.297183,0 c 0.04063,0.643394 0.233652,1.134403 0.579053,1.473029 0.348784,0.335242 0.833021,0.502862 1.452712,0.502862 0.358941,0 0.706034,-0.04402 1.04128,-0.132065 0.338622,-0.08804 0.673863,-0.220107 1.005723,-0.396194 l 0,0.883818 c -0.335246,0.142223 -0.678953,0.250584 -1.03112,0.325082 -0.352177,0.0745 -0.709429,0.111747 -1.071756,0.111747 -0.907525,0 -1.627107,-0.264129 -2.15875,-0.792388 -0.52826,-0.528258 -0.792389,-1.242761 -0.792389,-2.143512 0,-0.931222 0.250584,-1.669429 0.751753,-2.214624 0.504553,-0.548571 1.183501,-0.822858 2.036844,-0.822864 0.765294,6e-6 1.369744,0.247203 1.81335,0.741594 0.446983,0.491014 0.670477,1.159803 0.670483,2.006368 m -0.934612,-0.274289 c -0.0068,-0.511323 -0.150694,-0.919369 -0.43175,-1.224138 -0.277679,-0.30476 -0.646782,-0.457142 -1.107312,-0.457147 -0.521489,5e-6 -0.939693,0.147308 -1.254614,0.441909 -0.31154,0.29461 -0.491012,0.709428 -0.538418,1.244456 l 3.332094,-0.0051"
         style="font-size:10.40263557px;font-style:normal;font-weight:normal;opacity:0.49568966;fill:#000000;fill-opacity:1;stroke:#000000;stroke-width:0.2962606;stroke-linecap:butt;stroke-linejoin:miter;stroke-miterlimit:4;stroke-opacity:1;filter:url(#filter4425);font-family:Bitstream Vera Sans"
         transform="matrix(0.95793337,-0.0022382,-0.00251342,0.99870006,0.86228559,0.04324408)" />
      <path
         style="font-size:10.40263557px;font-style:normal;font-weight:normal;fill:#000080;fill-opacity:1;stroke:#000080;stroke-width:0.28977293;stroke-linecap:butt;stroke-linejoin:miter;stroke-miterlimit:4;stroke-opacity:1;font-family:Bitstream Vera Sans"
         d="m 31.223063,9.651143 -0.0072,2.845847 1.235898,-0.0028 c 0.457376,-0.0011 0.811263,-0.125329 1.061662,-0.372793 0.250391,-0.247456 0.376164,-0.599462 0.377318,-1.05602 0.0011,-0.453165 -0.122871,-0.802897 -0.37202,-1.049196 C 33.269601,9.7698049 32.916336,9.6471926 32.45896,9.6482553 l -1.235897,0.00289 m -0.98076,-0.8397902 2.218776,-0.00518 c 0.814195,-0.0019 1.428415,0.1894351 1.842659,0.5739911 0.417487,0.3811809 0.625301,0.9420828 0.623442,1.6827058 -0.0018,0.747399 -0.212534,1.312659 -0.631944,1.695785 -0.416176,0.383126 -1.031362,0.575637 -1.845558,0.577536 l -1.235898,0.0028 -0.0077,3.043684 -0.982879,0.0023 0.01906,-7.5737038 m 10.368261,0.2243414 -0.0025,0.9993434 C 40.235474,9.8499124 39.883867,9.7120781 39.553231,9.621534 39.222587,9.5310058 38.903186,9.4860949 38.595025,9.486808 c -0.535233,0.00125 -0.949093,0.110443 -1.24158,0.3275584 -0.289246,0.2171206 -0.434373,0.5252096 -0.435374,0.9242636 -8.44e-4,0.33481 0.0942,0.588228 0.285164,0.76025 0.194201,0.168644 0.560408,0.304753 1.098623,0.408328 l 0.5933,0.125433 c 0.732734,0.143712 1.272185,0.399473 1.618351,0.767282 0.349408,0.364427 0.52334,0.854388 0.521797,1.469886 -0.0018,0.733868 -0.240052,1.290739 -0.714599,1.670615 -0.471311,0.379869 -1.162722,0.570868 -2.074234,0.572997 -0.343847,8.04e-4 -0.710298,-0.03893 -1.099349,-0.119177 -0.385813,-0.08026 -0.786124,-0.199385 -1.200932,-0.357362 l 0.0026,-1.055144 c 0.398403,0.232418 0.788841,0.407361 1.171315,0.524832 0.382472,0.117472 0.758606,0.175776 1.128405,0.174911 0.561179,-0.0014 0.994518,-0.117307 1.300021,-0.347986 0.305493,-0.23068 0.458778,-0.559076 0.459856,-0.985194 9.32e-4,-0.372003 -0.108627,-0.662587 -0.328675,-0.871749 -0.216812,-0.209167 -0.574859,-0.365587 -1.07414,-0.46926 L 38.00742,12.886943 c -0.732706,-0.150468 -1.262471,-0.387651 -1.58928,-0.711548 -0.326809,-0.32389 -0.489486,-0.774987 -0.488029,-1.353292 0.0017,-0.669605 0.228456,-1.1977039 0.68032,-1.5842975 0.455104,-0.386587 1.080025,-0.5808124 1.874764,-0.582677 0.340599,-7.881e-4 0.687607,0.030528 1.041026,0.09395 0.353411,0.063438 0.714853,0.1589752 1.084331,0.2866154 m 6.582377,4.2356101 -0.0011,0.456552 -4.116415,0.0096 c 0.03731,0.642468 0.220971,1.132405 0.550991,1.469819 0.33327,0.334025 0.796715,0.500343 1.390338,0.498956 0.343841,-8.02e-4 0.676443,-0.04554 0.997809,-0.134223 0.324598,-0.08869 0.646069,-0.22133 0.964411,-0.39793 l -0.0022,0.882667 c -0.321501,0.142789 -0.651022,0.25178 -0.988561,0.326969 -0.33755,0.07519 -0.679867,0.11319 -1.026952,0.114 -0.869349,0.0019 -1.557997,-0.260145 -2.065947,-0.786525 -0.504711,-0.52639 -0.755932,-1.239374 -0.753669,-2.138952 0.0023,-0.930012 0.244239,-1.66782 0.725696,-2.213429 0.484707,-0.548986 1.135783,-0.824438 1.953228,-0.826353 0.733101,-0.0017 1.311503,0.243815 1.735205,0.73657 0.426946,0.489376 0.639358,1.156796 0.637236,2.00226 m -0.894608,-0.271841 c -0.0052,-0.510642 -0.142043,-0.917837 -0.41051,-1.22158 -0.265232,-0.303743 -0.618425,-0.4551 -1.059582,-0.454075 -0.499551,0.0012 -0.900533,0.14922 -1.202948,0.444143 -0.299175,0.294926 -0.47214,0.709606 -0.518896,1.244045 l 3.191936,-0.01255"
         id="text3346"
         inkscape:export-filename="/mnt/ex/pseint/bin/imgs/icon64.png"
         inkscape:export-xdpi="93.639999"
         inkscape:export-ydpi="93.639999"
         inkscape:connector-curvature="0" />
      <rect
         inkscape:export-ydpi="93.639999"
         inkscape:export-xdpi="93.639999"
         inkscape:export-filename="/mnt/ex/pseint/bin/imgs/icon64.png"
         transform="matrix(0.95793337,-0.0022382,-0.38469759,0.91657176,0.81352835,-19.978154)"
         ry="0"
         y="29.088682"
         x="36.497379"
         height="13.675757"
         width="35.512405"
         id="rect4517"
         style="opacity:0.90603452;fill:none;stroke:#999999;stroke-width:0.16327165;stroke-linecap:round;stroke-linejoin:miter;stroke-miterlimit:4;stroke-opacity:1;stroke-dasharray:none;stroke-dashoffset:0;filter:url(#filter4513)" />
      <path
         id="path3350"
         d="m 49.835914,8.0629268 5.226849,-5.592945"
         style="fill:#0000ff;fill-rule:evenodd;stroke:#0000ff;stroke-width:1.19871557;stroke-linecap:butt;stroke-linejoin:miter;stroke-miterlimit:4;stroke-opacity:1;stroke-dasharray:none;marker-start:none"
         inkscape:export-filename="/mnt/ex/pseint/bin/imgs/icon64.png"
         inkscape:export-xdpi="93.639999"
         inkscape:export-ydpi="93.639999"
         inkscape:connector-curvature="0" />
      <path
         sodipodi:nodetypes="ccccc"
         id="path3352"
         d="M 50.484796,3.58649 51.47446,6.4167142 53.779266,7.2609058 48.556622,9.4172673 50.484796,3.58649 z"
         style="fill:#0000ff;fill-rule:evenodd;stroke:#0000ff;stroke-width:0;stroke-linecap:butt;stroke-linejoin:miter;stroke-miterlimit:4;stroke-opacity:1;stroke-dasharray:none"
         inkscape:export-filename="/mnt/ex/pseint/bin/imgs/icon64.png"
         inkscape:export-xdpi="93.639999"
         inkscape:export-ydpi="93.639999"
         inkscape:connector-curvature="0" />
      <path
         inkscape:export-ydpi="93.639999"
         inkscape:export-xdpi="93.639999"
         inkscape:export-filename="/mnt/ex/pseint/bin/imgs/icon64.png"
         sodipodi:nodetypes="ccccc"
         id="path3354"
         d="m 35.261298,2.3536999 3.428388,0.8089076 2.875326,-0.657791 -2.897971,3.2902037 -3.405743,-3.4413203 z"
         style="fill:#800000;fill-rule:evenodd;stroke:#800000;stroke-width:0;stroke-linecap:butt;stroke-linejoin:miter;stroke-miterlimit:4;stroke-opacity:1;stroke-dasharray:none"
         inkscape:connector-curvature="0" />
      <path
         sodipodi:nodetypes="cc"
         id="path3356"
         d="M 38.294676,-1.2927034 38.47854,4.4832752"
         style="fill:#ffffff;fill-rule:evenodd;stroke:#800000;stroke-width:1.55650938;stroke-linecap:butt;stroke-linejoin:miter;stroke-miterlimit:4;stroke-opacity:1;stroke-dasharray:none"
         inkscape:export-filename="/mnt/ex/pseint/bin/imgs/icon64.png"
         inkscape:export-xdpi="93.639999"
         inkscape:export-ydpi="93.639999"
         inkscape:connector-curvature="0" />
      <path
         style="fill:#800000;fill-rule:evenodd;stroke:#800000;stroke-width:0;stroke-linecap:butt;stroke-linejoin:miter;stroke-miterlimit:4;stroke-opacity:1;stroke-dasharray:none"
         d="m 36.522432,41.971835 3.428388,0.808908 2.875327,-0.657792 -2.897972,3.290204 -3.405743,-3.44132 z"
         id="path3420"
         sodipodi:nodetypes="ccccc"
         inkscape:export-filename="/mnt/ex/pseint/bin/imgs/icon64.png"
         inkscape:export-xdpi="93.639999"
         inkscape:export-ydpi="93.639999"
         inkscape:connector-curvature="0" />
      <path
         style="fill:#ffffff;fill-rule:evenodd;stroke:#800000;stroke-width:1.55650938;stroke-linecap:butt;stroke-linejoin:miter;stroke-miterlimit:4;stroke-opacity:1;stroke-dasharray:none"
         d="m 39.555812,38.325432 0.183862,5.775979"
         id="path3422"
         sodipodi:nodetypes="cc"
         inkscape:export-filename="/mnt/ex/pseint/bin/imgs/icon64.png"
         inkscape:export-xdpi="93.639999"
         inkscape:export-ydpi="93.639999"
         inkscape:connector-curvature="0" />
      <path
         sodipodi:nodetypes="cc"
         id="path3360"
         d="m 39.542395,37.903962 0.183864,5.775978"
         style="fill:#ffffff;fill-rule:evenodd;stroke:#800000;stroke-width:1.55650938;stroke-linecap:butt;stroke-linejoin:miter;stroke-miterlimit:4;stroke-opacity:1;stroke-dasharray:none"
         inkscape:export-filename="/mnt/ex/pseint/bin/imgs/icon64.png"
         inkscape:export-xdpi="93.639999"
         inkscape:export-ydpi="93.639999"
         inkscape:connector-curvature="0" />
      <rect
         inkscape:export-ydpi="93.639999"
         inkscape:export-xdpi="93.639999"
         inkscape:export-filename="/mnt/ex/pseint/bin/imgs/icon64.png"
         transform="matrix(0.99999727,-0.00233647,-0.38700796,0.92207637,0,0)"
         ry="0"
         y="28.76318"
         x="35.67606"
         height="13.594116"
         width="34.018612"
         id="rect3364"
         style="fill:#ffffc6;fill-opacity:1;stroke:#000000;stroke-width:1.2935183;stroke-linecap:round;stroke-linejoin:miter;stroke-miterlimit:4;stroke-opacity:1;stroke-dasharray:none;stroke-dashoffset:0" />
      <path
         inkscape:connector-curvature="0"
         inkscape:export-ydpi="93.639999"
         inkscape:export-xdpi="93.639999"
         inkscape:export-filename="/mnt/ex/pseint/bin/imgs/icon64.png"
         id="path4407"
         d="m 33.700589,29.417902 1.026041,0 0,7.583562 -1.026041,0 0,-7.583562 m 7.756262,4.14988 0,3.433682 -0.934612,0 0,-3.403206 c -5e-6,-0.538413 -0.104979,-0.94138 -0.314924,-1.2089 -0.209953,-0.26751 -0.524876,-0.401268 -0.94477,-0.401273 -0.504558,5e-6 -0.902445,0.160853 -1.193662,0.482544 -0.291222,0.3217 -0.436832,0.760222 -0.43683,1.315568 l 0,3.215267 -0.939691,0 0,-5.688941 0.939691,0 0,0.883818 c 0.223492,-0.342009 0.485928,-0.597672 0.787309,-0.766991 0.304762,-0.169308 0.655241,-0.253965 1.051438,-0.253971 0.653547,6e-6 1.147943,0.203182 1.483189,0.609529 0.335235,0.402972 0.502856,0.997262 0.502862,1.782874 m 2.798755,-3.870512 0,1.615253 1.925097,0 0,0.726356 -1.925097,0 0,3.088282 c -2e-6,0.463921 0.06264,0.761913 0.187938,0.893977 0.128676,0.132065 0.387726,0.198098 0.77715,0.198097 l 0.960009,0 0,0.782229 -0.960009,0 c -0.721278,0 -1.21906,-0.133757 -1.493347,-0.401273 -0.274289,-0.270901 -0.411433,-0.761911 -0.411432,-1.47303 l 0,-3.088282 -0.685721,0 0,-0.726356 0.685721,0 0,-1.615253 0.939691,0"
         style="font-size:10.40263557px;font-style:normal;font-weight:normal;opacity:0.49568966;fill:#000000;fill-opacity:1;stroke:#000000;stroke-width:0.2962606;stroke-linecap:butt;stroke-linejoin:miter;stroke-miterlimit:4;stroke-opacity:1;filter:url(#filter4429);font-family:Bitstream Vera Sans"
         transform="matrix(0.95793337,-0.0022382,-0.00251342,0.99870006,0.86228559,0.04324408)" />
      <path
         style="font-size:10.40263557px;font-style:normal;font-weight:normal;fill:#000080;fill-opacity:1;stroke:#000080;stroke-width:0.28977293;stroke-linecap:butt;stroke-linejoin:miter;stroke-miterlimit:4;stroke-opacity:1;font-family:Bitstream Vera Sans"
         d="m 32.695182,28.894838 0.98288,-0.0023 -0.01906,7.573704 -0.982879,0.0023 0.01906,-7.573704 m 7.419554,4.127126 -0.0086,3.429218 -0.895295,0.0021 0.0086,-3.398782 c 0.0014,-0.537713 -0.0982,-0.939922 -0.298638,-1.206623 -0.200449,-0.266692 -0.501787,-0.399571 -0.904017,-0.398638 -0.483333,0.0011 -0.864887,0.162664 -1.144662,0.484589 -0.27978,0.321934 -0.420367,0.760212 -0.421761,1.314836 l -0.0081,3.211088 -0.900161,0.0021 0.01431,-5.681545 0.900161,-0.0021 -0.0022,0.882669 c 0.214951,-0.342064 0.466989,-0.597982 0.756118,-0.767756 0.292367,-0.16977 0.628315,-0.255101 1.007845,-0.255993 0.626055,-0.0015 1.099143,0.200347 1.419265,0.605417 0.32012,0.401697 0.479196,0.994839 0.477228,1.77943 m 2.690617,-3.871746 -0.0041,1.613155 1.844115,-0.0043 -0.0018,0.725412 -1.844114,0.0043 -0.0077,3.084267 c -0.0012,0.463317 0.05808,0.760782 0.177785,0.892394 0.12293,0.131605 0.370917,0.196972 0.743959,0.196101 l 0.919625,-0.0022 -0.0019,0.781212 -0.919624,0.0022 c -0.690937,0.0017 -1.167442,-0.130856 -1.429519,-0.39741 -0.26207,-0.269934 -0.392211,-0.76 -0.390422,-1.470194 l 0.0078,-3.084268 -0.656875,0.0016 0.0018,-0.725412 0.656876,-0.0016 0.0041,-1.613153 0.90016,-0.0021"
         id="text3366"
         inkscape:export-filename="/mnt/ex/pseint/bin/imgs/icon64.png"
         inkscape:export-xdpi="93.639999"
         inkscape:export-ydpi="93.639999"
         inkscape:connector-curvature="0" />
      <rect
         style="opacity:0.90603452;fill:none;stroke:#999999;stroke-width:0.16327165;stroke-linecap:round;stroke-linejoin:miter;stroke-miterlimit:4;stroke-opacity:1;stroke-dasharray:none;stroke-dashoffset:0;filter:url(#filter4513)"
         id="rect4499"
         width="35.512405"
         height="13.675757"
         x="36.497379"
         y="29.088682"
         ry="0"
         transform="matrix(0.95793337,-0.0022382,-0.38469759,0.91657176,0.86228559,0.04324408)"
         inkscape:export-filename="/mnt/ex/pseint/bin/imgs/icon64.png"
         inkscape:export-xdpi="93.639999"
         inkscape:export-ydpi="93.639999" />
      <path
         inkscape:export-ydpi="93.639999"
         inkscape:export-xdpi="93.639999"
         inkscape:export-filename="/mnt/ex/pseint/bin/imgs/icon64.png"
         id="path3370"
         d="m 57.633872,22.631935 -5.226848,5.592946"
         style="fill:#0000ff;fill-rule:evenodd;stroke:#0000ff;stroke-width:1.19871557;stroke-linecap:butt;stroke-linejoin:miter;stroke-miterlimit:4;stroke-opacity:1;stroke-dasharray:none;marker-start:none"
         inkscape:connector-curvature="0" />
      <path
         inkscape:export-ydpi="93.639999"
         inkscape:export-xdpi="93.639999"
         inkscape:export-filename="/mnt/ex/pseint/bin/imgs/icon64.png"
         sodipodi:nodetypes="ccccc"
         id="path3372"
         d="m 56.98499,27.108373 -0.989668,-2.830225 -2.3048,-0.844191 5.222642,-2.156361 -1.928174,5.830777 z"
         style="fill:#0000ff;fill-rule:evenodd;stroke:#0000ff;stroke-width:0;stroke-linecap:butt;stroke-linejoin:miter;stroke-miterlimit:4;stroke-opacity:1;stroke-dasharray:none"
         inkscape:connector-curvature="0" />
      <path
         style="fill:#800000;fill-rule:evenodd;stroke:#800000;stroke-width:0;stroke-linecap:butt;stroke-linejoin:miter;stroke-miterlimit:4;stroke-opacity:1;stroke-dasharray:none"
         d="m 35.898573,22.373502 3.428387,0.808908 2.875327,-0.657791 -2.89797,3.290204 -3.405744,-3.441321 z"
         id="path3374"
         sodipodi:nodetypes="ccccc"
         inkscape:export-filename="/mnt/ex/pseint/bin/imgs/icon64.png"
         inkscape:export-xdpi="93.639999"
         inkscape:export-ydpi="93.639999"
         inkscape:connector-curvature="0" />
      <path
         style="opacity:0.64224135;fill:#ffffff;stroke:none;filter:url(#filter4467)"
         d="m 46.636364,12.681817 -4.090908,2.090909 2.363637,-2.818182 z"
         id="path4433"
         inkscape:connector-curvature="0"
         sodipodi:nodetypes="cccc"
         transform="matrix(0.69961379,0.03828141,-0.04598642,0.74839726,20.335625,-3.9269553)"
         inkscape:export-filename="/mnt/ex/pseint/bin/imgs/icon64.png"
         inkscape:export-xdpi="93.639999"
         inkscape:export-ydpi="93.639999" />
      <path
         inkscape:connector-curvature="0"
         id="path4451"
         d="m 44.181819,11.545453 -2.045454,3.090909 1.363637,-5.0454544 z"
         style="opacity:0.64224135;fill:#ffffff;stroke:none;filter:url(#filter4463)"
         sodipodi:nodetypes="cccc"
         transform="matrix(-0.737994,-0.04038149,0.0485092,-0.78945369,88.637791,35.336807)"
         inkscape:export-filename="/mnt/ex/pseint/bin/imgs/icon64.png"
         inkscape:export-xdpi="93.639999"
         inkscape:export-ydpi="93.639999" />
      <path
         style="opacity:0.74568948;fill:#ffffff;stroke:none;filter:url(#filter4493)"
         d="M 25.134433,9.0385169 27.70573,10.96699 29.891333,9.1027994 c 0,0 -1.992756,0.7713892 -2.249885,0.7713892 -0.25713,0 -2.507015,-0.8356717 -2.507015,-0.8356717 z"
         id="path4471"
         inkscape:connector-curvature="0"
         transform="matrix(0.737994,0.04038149,-0.0485092,0.78945369,18.59084,-4.5729341)"
         inkscape:export-filename="/mnt/ex/pseint/bin/imgs/icon64.png"
         inkscape:export-xdpi="93.639999"
         inkscape:export-ydpi="93.639999" />
      <path
         transform="matrix(0.737994,0.04038149,-0.0485092,0.78945369,19.259836,15.525613)"
         inkscape:connector-curvature="0"
         id="path4497"
         d="M 25.134433,9.0385169 27.70573,10.96699 29.891333,9.1027994 c 0,0 -1.992756,0.7713892 -2.249885,0.7713892 -0.25713,0 -2.507015,-0.8356717 -2.507015,-0.8356717 z"
         style="opacity:0.74568948;fill:#ffffff;stroke:none;filter:url(#filter4493)"
         inkscape:export-filename="/mnt/ex/pseint/bin/imgs/icon64.png"
         inkscape:export-xdpi="93.639999"
         inkscape:export-ydpi="93.639999" />
      <path
         sodipodi:type="inkscape:offset"
         inkscape:radius="-0.34811664"
         inkscape:original="M 39.3125 8.71875 C 38.482861 8.7187577 37.817826 8.8952223 37.34375 9.28125 C 36.873057 9.667292 36.624999 10.204523 36.625 10.875 C 36.624999 11.454057 36.814236 11.893672 37.15625 12.21875 C 37.498262 12.543836 38.0472 12.785121 38.8125 12.9375 L 39.4375 13.0625 C 39.958982 13.167478 40.335615 13.321304 40.5625 13.53125 C 40.792761 13.741201 40.906245 14.033762 40.90625 14.40625 C 40.906245 14.832922 40.755805 15.175984 40.4375 15.40625 C 40.119186 15.636517 39.648322 15.75 39.0625 15.75 C 38.676462 15.75 38.305828 15.68102 37.90625 15.5625 C 37.506668 15.443981 37.072761 15.264904 36.65625 15.03125 L 36.65625 16.09375 C 37.089692 16.252905 37.503282 16.38748 37.90625 16.46875 C 38.3126 16.550016 38.703552 16.59375 39.0625 16.59375 C 40.014039 16.59375 40.727736 16.379263 41.21875 16 C 41.713141 15.620738 41.968743 15.078573 41.96875 14.34375 C 41.968743 13.727451 41.803212 13.240721 41.4375 12.875 C 41.075164 12.5059 40.515293 12.239364 39.75 12.09375 L 39.125 11.96875 C 38.562875 11.86378 38.171924 11.731818 37.96875 11.5625 C 37.768954 11.389805 37.656248 11.116496 37.65625 10.78125 C 37.656248 10.381676 37.82362 10.091728 38.125 9.875 C 38.429762 9.6582849 38.847512 9.531257 39.40625 9.53125 C 39.727942 9.531257 40.060846 9.59608 40.40625 9.6875 C 40.751645 9.778936 41.141824 9.9075107 41.53125 10.09375 L 41.53125 9.09375 C 41.14521 8.9650785 40.744099 8.876847 40.375 8.8125 C 40.005892 8.748168 39.668056 8.7187577 39.3125 8.71875 z M 30.6875 8.84375 L 30.6875 16.4375 L 31.71875 16.4375 L 31.71875 13.375 L 33 13.375 C 33.84995 13.375003 34.504052 13.195153 34.9375 12.8125 C 35.374324 12.429855 35.593744 11.873371 35.59375 11.125 C 35.593744 10.383412 35.374324 9.820156 34.9375 9.4375 C 34.504052 9.051472 33.84995 8.8437576 33 8.84375 L 30.6875 8.84375 z M 31.71875 9.6875 L 33 9.6875 C 33.477461 9.687506 33.864253 9.8153076 34.125 10.0625 C 34.385739 10.309704 34.499995 10.671245 34.5 11.125 C 34.499995 11.582152 34.385739 11.909056 34.125 12.15625 C 33.864253 12.403452 33.477461 12.531254 33 12.53125 L 31.71875 12.53125 L 31.71875 9.6875 z M 45.90625 10.59375 C 45.052907 10.593756 44.379553 10.888929 43.875 11.4375 C 43.373831 11.982695 43.125 12.725028 43.125 13.65625 C 43.125 14.557001 43.37799 15.252992 43.90625 15.78125 C 44.437893 16.309509 45.186225 16.59375 46.09375 16.59375 C 46.456077 16.59375 46.804073 16.54325 47.15625 16.46875 C 47.508417 16.394252 47.852254 16.298473 48.1875 16.15625 L 48.1875 15.25 C 47.85564 15.426087 47.526122 15.56821 47.1875 15.65625 C 46.852254 15.744295 46.483941 15.78125 46.125 15.78125 C 45.505309 15.78125 45.036284 15.616492 44.6875 15.28125 C 44.342099 14.942624 44.13438 14.455894 44.09375 13.8125 L 48.40625 13.8125 L 48.40625 13.34375 C 48.406244 12.497185 48.165733 11.834764 47.71875 11.34375 C 47.275144 10.849359 46.671544 10.593756 45.90625 10.59375 z M 45.9375 11.40625 C 46.39803 11.406255 46.753571 11.53899 47.03125 11.84375 C 47.312306 12.148519 47.46195 12.582427 47.46875 13.09375 L 44.125 13.09375 C 44.172406 12.558722 44.37596 12.13836 44.6875 11.84375 C 45.002421 11.549149 45.416011 11.406255 45.9375 11.40625 z "
         style="font-size:10.40263557px;font-style:normal;font-weight:normal;fill:#00ffff;fill-opacity:1;stroke:none;filter:url(#filter4567);font-family:Bitstream Vera Sans"
         id="path4531"
         d="m 39.3125,9.0625 c -0.780278,7.2e-6 -1.359252,0.181824 -1.75,0.5 -0.394616,0.3236472 -0.593751,0.727886 -0.59375,1.3125 -10e-7,0.503213 0.162605,0.832467 0.4375,1.09375 0.269538,0.256198 0.741207,0.480139 1.46875,0.625 l 0.625,0.125 c 0.55419,0.111562 1.006872,0.27969 1.3125,0.5625 0.307158,0.280065 0.437494,0.681809 0.4375,1.125 -6e-6,0.508498 -0.184611,0.985274 -0.59375,1.28125 -0.406396,0.293985 -0.962971,0.40625 -1.59375,0.40625 -0.427507,0 -0.829461,-0.06276 -1.25,-0.1875 C 37.549703,15.828302 37.275159,15.687048 37,15.5625 l 0,0.28125 c 0.339182,0.118525 0.662586,0.219503 0.96875,0.28125 0.387797,0.07756 0.763078,0.125 1.09375,0.125 0.899226,0 1.525387,-0.212931 1.9375,-0.53125 0.413244,-0.317012 0.624994,-0.720902 0.625,-1.375 -6e-6,-0.553968 -0.143849,-0.925092 -0.4375,-1.21875 -0.295442,-0.300958 -0.780709,-0.550639 -1.5,-0.6875 l -0.625,-0.125 C 38.477254,12.203212 38.053556,12.096722 37.75,11.84375 a 0.34815145,0.34815145 0 0 1 0,-0.03125 c -0.288269,-0.249167 -0.437502,-0.617981 -0.4375,-1.03125 -2e-6,-0.496787 0.222486,-0.920517 0.59375,-1.1875 a 0.34815145,0.34815145 0 0 1 0.03125,0 c 0.374845,-0.2665512 0.857252,-0.4062423 1.46875,-0.40625 0.368452,8e-6 0.73421,0.061088 1.09375,0.15625 0.208526,0.055203 0.454485,0.1638308 0.6875,0.25 l 0,-0.21875 c -0.295282,-0.085496 -0.589017,-0.1688931 -0.875,-0.21875 -0.351391,-0.061244 -0.663636,-0.093743 -1,-0.09375 z m -8.28125,0.125 0,6.90625 0.34375,0 0,-2.71875 a 0.34815145,0.34815145 0 0 1 0.34375,-0.34375 l 1.28125,0 c 0.800842,3e-6 1.374993,-0.165277 1.71875,-0.46875 0.354451,-0.310488 0.531245,-0.757172 0.53125,-1.4375 -5e-6,-0.672923 -0.178326,-1.1283402 -0.53125,-1.4375 C 34.368881,9.3759074 33.793235,9.1875071 33,9.1875 l -1.96875,0 z M 31.625,9.34375 a 0.34815145,0.34815145 0 0 1 0.09375,0 l 1.28125,0 c 0.539579,6.8e-6 1.032988,0.144517 1.375,0.46875 0.346873,0.328867 0.468744,0.80031 0.46875,1.3125 -6e-6,0.515153 -0.133653,0.963561 -0.46875,1.28125 C 34.032988,12.730496 33.539583,12.875005 33,12.875 l -1.28125,0 A 0.34815145,0.34815145 0 0 1 31.375,12.53125 l 0,-2.84375 a 0.34815145,0.34815145 0 0 1 0.25,-0.34375 z m 14.28125,1.59375 c -0.773068,5e-6 -1.339045,0.269217 -1.78125,0.75 -0.433474,0.471553 -0.65625,1.099541 -0.65625,1.96875 0,0.835568 0.22805,1.415551 0.6875,1.875 0.460072,0.457143 1.102663,0.71875 1.9375,0.71875 0.329981,0 0.662088,-0.05352 1,-0.125 0.26173,-0.05537 0.506621,-0.130807 0.75,-0.21875 l 0,-0.125 c -0.187376,0.07856 -0.366255,0.167727 -0.5625,0.21875 -0.372686,0.09788 -0.773415,0.125 -1.15625,0.125 -0.681394,0 -1.267386,-0.189948 -1.6875,-0.59375 -0.414657,-0.406524 -0.642863,-0.980647 -0.6875,-1.6875 a 0.34815145,0.34815145 0 0 1 0.34375,-0.375 l 3.96875,0 0,-0.125 c -6e-6,-0.780632 -0.20984,-1.359522 -0.59375,-1.78125 -0.378608,-0.421952 -0.874717,-0.624995 -1.5625,-0.625 z m 0.03125,0.125 c 0.527418,6e-6 1.000328,0.154335 1.34375,0.53125 0.350941,0.38055 0.523582,0.923393 0.53125,1.5 a 0.34815145,0.34815145 0 0 1 -0.34375,0.34375 l -3.34375,0 a 0.34815145,0.34815145 0 0 1 -0.34375,-0.375 c 0.05372,-0.606326 0.2796,-1.112569 0.65625,-1.46875 0.384953,-0.360114 0.914921,-0.531244 1.5,-0.53125 z"
         transform="matrix(0.95793337,-0.0022382,-0.00251342,0.99870006,1.0503269,0.26956278)"
         inkscape:export-filename="/mnt/ex/pseint/bin/imgs/icon64.png"
         inkscape:export-xdpi="93.639999"
         inkscape:export-ydpi="93.639999" />
      <path
         sodipodi:type="inkscape:offset"
         inkscape:radius="-0.36288399"
         inkscape:original="M 33.3125 28.96875 L 33.3125 36.5625 L 34.34375 36.5625 L 34.34375 28.96875 L 33.3125 28.96875 z M 42.9375 29.25 L 42.9375 30.84375 L 42.25 30.84375 L 42.25 31.59375 L 42.9375 31.59375 L 42.9375 34.6875 C 42.937499 35.398619 43.069461 35.885349 43.34375 36.15625 C 43.618037 36.423766 44.091222 36.5625 44.8125 36.5625 L 45.78125 36.5625 L 45.78125 35.75 L 44.8125 35.75 C 44.423076 35.750001 44.191176 35.694565 44.0625 35.5625 C 43.937202 35.430436 43.874998 35.151421 43.875 34.6875 L 43.875 31.59375 L 45.78125 31.59375 L 45.78125 30.84375 L 43.875 30.84375 L 43.875 29.25 L 42.9375 29.25 z M 39.0625 30.71875 C 38.666303 30.718756 38.336012 30.799442 38.03125 30.96875 C 37.729869 31.138069 37.473492 31.407991 37.25 31.75 L 37.25 30.84375 L 36.3125 30.84375 L 36.3125 36.5625 L 37.25 36.5625 L 37.25 33.34375 C 37.249998 32.788404 37.396278 32.35295 37.6875 32.03125 C 37.978717 31.709559 38.370442 31.531255 38.875 31.53125 C 39.294894 31.531255 39.602547 31.66999 39.8125 31.9375 C 40.022445 32.20502 40.124995 32.617837 40.125 33.15625 L 40.125 36.5625 L 41.0625 36.5625 L 41.0625 33.125 C 41.062494 32.339388 40.897735 31.746722 40.5625 31.34375 C 40.227254 30.937403 39.716047 30.718756 39.0625 30.71875 z "
         style="font-size:10.40263557px;font-style:normal;font-weight:normal;fill:#00ffff;fill-opacity:1;stroke:none;filter:url(#filter4571);font-family:Bitstream Vera Sans"
         id="path4533"
         d="m 33.6875,29.34375 0,6.84375 0.28125,0 0,-6.84375 -0.28125,0 z m 9.625,0.28125 0,1.21875 a 0.36292027,0.36292027 0 0 1 -0.34375,0.375 0.36292027,0.36292027 0 0 1 0.34375,0.375 l 0,3.09375 c -10e-7,0.666225 0.120176,1.059666 0.28125,1.21875 0.169839,0.165647 0.544005,0.28125 1.21875,0.28125 l 0.59375,0 0,-0.0625 -0.59375,0 c -0.423863,10e-7 -0.754667,-0.0607 -1,-0.3125 -0.259676,-0.273698 -0.312502,-0.628641 -0.3125,-1.125 l 0,-3.09375 a 0.36292027,0.36292027 0 0 1 0.34375,-0.375 0.36292027,0.36292027 0 0 1 -0.34375,-0.375 l 0,-1.21875 -0.1875,0 z m -4.25,1.46875 c -0.346932,5e-6 -0.593501,0.04848 -0.84375,0.1875 -0.01116,0.0063 -0.02016,0.02457 -0.03125,0.03125 0.215459,-0.07649 0.438055,-0.156248 0.6875,-0.15625 0.499824,6e-6 0.94012,0.207485 1.21875,0.5625 0.286447,0.365002 0.406245,0.85301 0.40625,1.4375 l 0,3.03125 0.1875,0 0,-3.0625 c -6e-6,-0.734877 -0.145505,-1.249069 -0.40625,-1.5625 -0.260668,-0.315951 -0.646138,-0.468745 -1.21875,-0.46875 z m -2.375,0.125 0,4.96875 0.1875,0 0,-2.84375 c -2e-6,-0.464302 0.143681,-0.870287 0.34375,-1.21875 A 0.36292027,0.36292027 0 0 1 36.875,31.75 l 0,-0.53125 -0.1875,0 z"
         transform="matrix(0.95793337,-0.0022382,-0.00251342,0.99870006,1.0503269,0.26956278)"
         inkscape:export-filename="/mnt/ex/pseint/bin/imgs/icon64.png"
         inkscape:export-xdpi="93.639999"
         inkscape:export-ydpi="93.639999" />
      <path
         inkscape:export-ydpi="93.639999"
         inkscape:export-xdpi="93.639999"
         inkscape:export-filename="/mnt/ex/pseint/bin/imgs/icon64.png"
         style="opacity:0.74568936;fill:#ffffff;stroke:none;filter:url(#filter4493)"
         d="M 25.134433,9.0385169 27.70573,10.96699 29.891333,9.1027994 c 0,0 -1.992756,0.7713892 -2.249885,0.7713892 -0.25713,0 -2.507015,-0.8356717 -2.507015,-0.8356717 z"
         id="path4577"
         inkscape:connector-curvature="0"
         transform="matrix(0.737994,0.04038149,-0.0485092,0.78945369,19.820322,34.998933)" />
    </g>
  </g>
</svg>
